<svg width="505" height="409" viewBox="0 0 505 409" fill="none" xmlns="http://www.w3.org/2000/svg">
<g filter="url(#filter0_d_17_92)">
<path d="M424.427 370.843C423.304 373.927 329.183 342.496 214.202 300.646C99.2145 258.794 6.90839 222.371 8.03094 219.287C9.15266 216.205 103.275 247.637 218.262 289.489C333.244 331.34 425.549 367.761 424.427 370.843Z" fill="url(#paint0_radial_17_92)"/>
<path d="M77.6515 239.566C71.8915 237.47 68.9203 231.056 71.027 225.268L141.574 31.4427C143.68 25.6547 150.079 22.6513 155.839 24.7477L443.845 129.573C449.604 131.669 452.576 138.084 450.469 143.872L379.923 337.697C377.816 343.485 371.417 346.488 365.658 344.392L77.6515 239.566Z" fill="#E0E0E0"/>
<path d="M378.963 337.347C377.047 342.61 371.248 345.333 366.01 343.426L78.0032 238.6C72.7637 236.693 70.0712 230.88 71.9868 225.617L142.533 31.7916C144.45 26.5268 150.248 23.8051 155.488 25.7123L443.494 130.538C448.733 132.445 451.426 138.257 449.51 143.522L378.963 337.347Z" fill="#1C1F24"/>
<path d="M345.622 324.483L101.959 235.797L99.3276 243.028L342.99 331.714L345.622 324.483Z" fill="url(#paint1_linear_17_92)"/>
<path d="M382.472 327.706C380.557 332.969 374.757 335.692 369.518 333.786L81.512 228.96C76.2725 227.053 73.5804 221.239 75.496 215.975L142.533 31.7916C144.45 26.5268 150.248 23.8051 155.488 25.7123L443.494 130.538C448.733 132.445 451.426 138.257 449.51 143.522L382.472 327.706Z" fill="#3B3B3B"/>
<path d="M81.8631 227.995C77.1611 226.284 74.7361 221.05 76.456 216.325L143.493 32.1413C145.213 27.4162 150.435 24.9645 155.137 26.6759L443.144 131.502C447.846 133.213 450.269 138.448 448.549 143.173L381.512 327.356C379.792 332.082 374.571 334.532 369.87 332.821L81.8631 227.995Z" fill="#000004"/>
<path d="M412.035 362.143C410.56 366.194 400.253 362.838 394.846 360.87L42.3 232.554C36.8914 230.586 26.8396 226.531 28.314 222.48L412.035 362.143Z" fill="url(#paint2_linear_17_92)"/>
<path d="M222.062 284.877L30.9248 215.309L28.4678 222.06L219.605 291.628L222.062 284.877Z" fill="url(#paint3_linear_17_92)"/>
<path d="M414.644 354.971L222.062 284.877L219.605 291.628L412.187 361.722L414.644 354.971Z" fill="url(#paint4_linear_17_92)"/>
<path d="M219.701 291.367L28.563 221.798L28.3148 222.48L219.452 292.049L219.701 291.367Z" fill="url(#paint5_linear_17_92)"/>
<path d="M412.283 361.461L219.7 291.366L219.452 292.048L412.034 362.142L412.283 361.461Z" fill="url(#paint6_linear_17_92)"/>
<path d="M222.062 284.877L198.199 276.192C198.588 278.615 200.233 280.755 202.691 281.65L241.622 295.819C244.081 296.714 246.714 296.132 248.57 294.525L222.062 284.877Z" fill="url(#paint7_linear_17_92)"/>
</g>
<defs>
<filter id="filter0_d_17_92" x="0.573263" y="16.6322" width="487.811" height="391.657" filterUnits="userSpaceOnUse" color-interpolation-filters="sRGB">
<feFlood flood-opacity="0" result="BackgroundImageFix"/>
<feColorMatrix in="SourceAlpha" type="matrix" values="0 0 0 0 0 0 0 0 0 0 0 0 0 0 0 0 0 0 127 0" result="hardAlpha"/>
<feOffset dx="14.895" dy="14.895"/>
<feGaussianBlur stdDeviation="11.1712"/>
<feComposite in2="hardAlpha" operator="out"/>
<feColorMatrix type="matrix" values="0 0 0 0 0 0 0 0 0 0 0 0 0 0 0 0 0 0 0.25 0"/>
<feBlend mode="normal" in2="BackgroundImageFix" result="effect1_dropShadow_17_92"/>
<feBlend mode="normal" in="SourceGraphic" in2="effect1_dropShadow_17_92" result="shape"/>
</filter>
<radialGradient id="paint0_radial_17_92" cx="0" cy="0" r="1" gradientUnits="userSpaceOnUse" gradientTransform="translate(216.228 295.067) rotate(20) scale(221.592 5.93526)">
<stop/>
<stop offset="0.1683" stop-color="#434343"/>
<stop offset="0.3332" stop-color="#7C7C7C"/>
<stop offset="0.4909" stop-color="#ABABAB"/>
<stop offset="0.6401" stop-color="#CFCFCF"/>
<stop offset="0.7787" stop-color="#EAEAEA"/>
<stop offset="0.9027" stop-color="#F9F9F9"/>
<stop offset="1" stop-color="white"/>
</radialGradient>
<linearGradient id="paint1_linear_17_92" x1="221.159" y1="287.371" x2="223.878" y2="279.899" gradientUnits="userSpaceOnUse">
<stop stop-color="#282B32"/>
<stop offset="0.3841" stop-color="#26292F"/>
<stop offset="0.6136" stop-color="#1F2227"/>
<stop offset="0.8023" stop-color="#141519"/>
<stop offset="0.968" stop-color="#040405"/>
<stop offset="1"/>
</linearGradient>
<linearGradient id="paint2_linear_17_92" x1="220.352" y1="291.823" x2="218.679" y2="296.422" gradientUnits="userSpaceOnUse">
<stop stop-color="#525252"/>
<stop offset="0.2204" stop-color="#9FA0A4"/>
<stop offset="0.3398" stop-color="#96979B"/>
<stop offset="0.5337" stop-color="#7F8083"/>
<stop offset="0.7762" stop-color="#58595C"/>
<stop offset="1" stop-color="#2F3032"/>
</linearGradient>
<linearGradient id="paint3_linear_17_92" x1="29.6961" y1="218.684" x2="220.834" y2="288.253" gradientUnits="userSpaceOnUse">
<stop stop-color="#595959"/>
<stop offset="0.0108" stop-color="#EEEEF0"/>
<stop offset="0.043" stop-color="#808080"/>
<stop offset="0.2903" stop-color="#E8E8E8"/>
<stop offset="0.2975" stop-color="#EAEAEA"/>
<stop offset="0.3539" stop-color="#F0F0F0"/>
<stop offset="0.5108" stop-color="#F2F2F2"/>
</linearGradient>
<linearGradient id="paint4_linear_17_92" x1="413.416" y1="358.347" x2="220.833" y2="288.252" gradientUnits="userSpaceOnUse">
<stop stop-color="#121212"/>
<stop offset="0.0215" stop-color="#EEEEF0"/>
<stop offset="0.0237" stop-color="#D4D4D6"/>
<stop offset="0.0267" stop-color="#BABABB"/>
<stop offset="0.03" stop-color="#A5A5A5"/>
<stop offset="0.0339" stop-color="#949494"/>
<stop offset="0.0388" stop-color="#898989"/>
<stop offset="0.0456" stop-color="#828282"/>
<stop offset="0.0645" stop-color="#808080"/>
<stop offset="0.1188" stop-color="#9C9C9C"/>
<stop offset="0.1886" stop-color="#BABABA"/>
<stop offset="0.2483" stop-color="#CDCDCD"/>
<stop offset="0.2903" stop-color="#D4D4D4"/>
<stop offset="0.3075" stop-color="#DEDEDE"/>
<stop offset="0.3397" stop-color="#EAEAEA"/>
<stop offset="0.385" stop-color="#F0F0F0"/>
<stop offset="0.5108" stop-color="#F2F2F2"/>
</linearGradient>
<linearGradient id="paint5_linear_17_92" x1="28.4387" y1="222.139" x2="219.576" y2="291.708" gradientUnits="userSpaceOnUse">
<stop stop-color="#595959"/>
<stop offset="0.0108" stop-color="#EEEEF0"/>
<stop offset="0.043" stop-color="#808080"/>
<stop offset="0.2903" stop-color="#E8E8E8"/>
<stop offset="0.2956" stop-color="#EBEBEB"/>
<stop offset="0.3305" stop-color="#F6F6F6"/>
<stop offset="0.3796" stop-color="#FDFDFD"/>
<stop offset="0.5161" stop-color="white"/>
</linearGradient>
<linearGradient id="paint6_linear_17_92" x1="412.159" y1="361.802" x2="219.576" y2="291.707" gradientUnits="userSpaceOnUse">
<stop stop-color="#121212"/>
<stop offset="0.0215" stop-color="#EEEEF0"/>
<stop offset="0.0237" stop-color="#D4D4D6"/>
<stop offset="0.0267" stop-color="#BABABB"/>
<stop offset="0.03" stop-color="#A5A5A5"/>
<stop offset="0.0339" stop-color="#949494"/>
<stop offset="0.0388" stop-color="#898989"/>
<stop offset="0.0456" stop-color="#828282"/>
<stop offset="0.0645" stop-color="#808080"/>
<stop offset="0.1188" stop-color="#9C9C9C"/>
<stop offset="0.1886" stop-color="#BABABA"/>
<stop offset="0.2483" stop-color="#CDCDCD"/>
<stop offset="0.2903" stop-color="#D4D4D4"/>
<stop offset="0.297" stop-color="#DADADA"/>
<stop offset="0.3212" stop-color="#EBEBEB"/>
<stop offset="0.3513" stop-color="#F6F6F6"/>
<stop offset="0.3935" stop-color="#FDFDFD"/>
<stop offset="0.5108" stop-color="white"/>
</linearGradient>
<linearGradient id="paint7_linear_17_92" x1="197.949" y1="278.012" x2="248.086" y2="296.26" gradientUnits="userSpaceOnUse">
<stop stop-color="#4D4D4D"/>
<stop offset="0.0182" stop-color="#646565"/>
<stop offset="0.0473" stop-color="#838484"/>
<stop offset="0.0803" stop-color="#9E9EA0"/>
<stop offset="0.1176" stop-color="#B3B4B6"/>
<stop offset="0.1611" stop-color="#C4C5C7"/>
<stop offset="0.2149" stop-color="#D0D0D2"/>
<stop offset="0.2904" stop-color="#D6D7D9"/>
<stop offset="0.5" stop-color="#D8D9DB"/>
<stop offset="0.7073" stop-color="#D6D7D9"/>
<stop offset="0.782" stop-color="#D0D0D2"/>
<stop offset="0.8352" stop-color="#C4C5C7"/>
<stop offset="0.8783" stop-color="#B3B4B6"/>
<stop offset="0.9152" stop-color="#9E9EA0"/>
<stop offset="0.9478" stop-color="#838484"/>
<stop offset="0.9766" stop-color="#646565"/>
<stop offset="0.9946" stop-color="#4D4D4D"/>
</linearGradient>
</defs>
</svg>
