<svg width="30" height="30" viewBox="0 0 30 30" fill="none" xmlns="http://www.w3.org/2000/svg">
<g id="gis:rectangle-pt" clip-path="url(#clip0_33_92)">
<path id="Vector" d="M3.765 4.5C1.6986 4.5 0 6.1983 0 8.265C0 10.0701 1.2951 11.5938 3 11.9508V18.0792C1.2951 18.4362 0 19.9602 0 21.7653C0 23.832 1.6983 25.53 3.765 25.53C5.5791 25.53 7.092 24.2178 7.4373 22.5H22.5738C22.9194 24.2196 24.4497 25.53 26.2653 25.53C28.2603 25.53 29.8968 23.9436 30.0087 21.9744C30.0227 21.9056 30.0297 21.8355 30.0297 21.7653C30.0297 21.6951 30.0227 21.625 30.0087 21.5562C29.9109 19.8351 28.6485 18.4068 27 18.0738V11.9562C28.6485 11.6232 29.9109 10.1952 30.009 8.4744C30.023 8.40558 30.03 8.33553 30.03 8.2653C30.03 8.19507 30.023 8.12502 30.009 8.0562C29.8965 6.087 28.2603 4.5 26.265 4.5C24.4602 4.5 22.9362 5.7951 22.5792 7.5H7.431C7.074 5.7972 5.5683 4.5 3.765 4.5ZM3.765 6.6C4.6971 6.6 5.43 7.3332 5.43 8.265C5.43 9.1971 4.6971 9.93 3.765 9.93C2.8335 9.93 2.1 9.1971 2.1 8.265C2.1 7.3335 2.8332 6.6 3.765 6.6ZM26.265 6.6C27.1971 6.6 27.93 7.3332 27.93 8.265C27.93 9.1971 27.1971 9.93 26.265 9.93C25.3332 9.93 24.6 9.1971 24.6 8.265C24.6 7.3332 25.3332 6.6 26.265 6.6ZM7.2654 9.6H22.7514C22.9404 10.0901 23.229 10.5357 23.5988 10.9087C23.9685 11.2818 24.4116 11.5742 24.9 11.7675V18.2625C24.4166 18.4539 23.9775 18.7423 23.6099 19.1099C23.2423 19.4775 22.9539 19.9166 22.7625 20.4H7.2525C7.06143 19.9127 6.77154 19.4702 6.40109 19.1004C6.03064 18.7307 5.58765 18.4416 5.1 18.2514V11.7786C5.5929 11.5866 6.04016 11.2936 6.41304 10.9184C6.78592 10.5432 7.07616 10.0941 7.2651 9.6M3.765 20.1C4.6968 20.1 5.4297 20.8332 5.4297 21.765C5.4297 22.6971 4.6968 23.43 3.7647 23.43C2.8335 23.43 2.1 22.6971 2.1 21.765C2.1 20.8335 2.8332 20.1 3.765 20.1ZM26.265 20.1C27.1968 20.1 27.9297 20.8332 27.9297 21.765C27.9297 22.6971 27.1968 23.43 26.2647 23.43C25.3329 23.43 24.5997 22.6971 24.5997 21.765C24.5997 20.8332 25.3332 20.1 26.265 20.1Z" fill="black"/>
</g>
<defs>
<clipPath id="clip0_33_92">
<rect width="30" height="30" fill="white"/>
</clipPath>
</defs>
</svg>
