<svg width="70" height="70" viewBox="0 0 70 70" fill="none" xmlns="http://www.w3.org/2000/svg">
<g id="Group">
<path id="Vector" opacity="0.2" d="M15.3125 3.6842H44.5594C45.4693 3.68387 46.3693 3.84288 47.2023 4.15112C48.0353 4.45936 48.7831 4.91011 49.3981 5.47473L68.2719 22.7979C69.3829 23.8171 69.9996 25.1502 70 26.5337V64.4737C70 65.9393 69.3086 67.345 68.0779 68.3814C66.8472 69.4178 65.178 70 63.4375 70H15.3125C13.572 70 11.9028 69.4178 10.6721 68.3814C9.4414 67.345 8.75 65.9393 8.75 64.4737V9.21052C8.75 7.74485 9.4414 6.33921 10.6721 5.30283C11.9028 4.26644 13.572 3.6842 15.3125 3.6842Z" fill="black"/>
<path id="Vector_2" d="M15.3125 40.5264C14.7323 40.5264 14.1759 40.3323 13.7657 39.9868C13.3555 39.6414 13.125 39.1728 13.125 38.6843C13.125 38.1957 13.3555 37.7272 13.7657 37.3817C14.1759 37.0362 14.7323 36.8422 15.3125 36.8422H45.9375C46.5177 36.8422 47.0741 37.0362 47.4843 37.3817C47.8945 37.7272 48.125 38.1957 48.125 38.6843C48.125 39.1728 47.8945 39.6414 47.4843 39.9868C47.0741 40.3323 46.5177 40.5264 45.9375 40.5264H15.3125ZM15.3125 51.579C14.7323 51.579 14.1759 51.3849 13.7657 51.0395C13.3555 50.694 13.125 50.2255 13.125 49.7369C13.125 49.2483 13.3555 48.7798 13.7657 48.4343C14.1759 48.0889 14.7323 47.8948 15.3125 47.8948H45.9375C46.5177 47.8948 47.0741 48.0889 47.4843 48.4343C47.8945 48.7798 48.125 49.2483 48.125 49.7369C48.125 50.2255 47.8945 50.694 47.4843 51.0395C47.0741 51.3849 46.5177 51.579 45.9375 51.579H15.3125Z" fill="black"/>
<path id="Vector_3" fill-rule="evenodd" clip-rule="evenodd" d="M35.8094 5.14839e-07H6.5625C4.82202 5.14839e-07 3.15282 0.582236 1.92211 1.61862C0.691404 2.65501 0 4.06065 0 5.52632V60.7895C0 62.2551 0.691404 63.6608 1.92211 64.6972C3.15282 65.7336 4.82202 66.3158 6.5625 66.3158H54.6875C56.428 66.3158 58.0972 65.7336 59.3279 64.6972C60.5586 63.6608 61.25 62.2551 61.25 60.7895V22.8495C61.2496 21.4659 60.6329 20.1329 59.5219 19.1137L40.6481 1.79053C40.0331 1.2259 39.2853 0.77516 38.4523 0.466917C37.6193 0.158674 36.7193 -0.000330202 35.8094 5.14839e-07ZM4.375 5.52632C4.375 5.03776 4.60547 4.56921 5.0157 4.22375C5.42594 3.87829 5.98234 3.68421 6.5625 3.68421H35.8094C36.1129 3.68393 36.4132 3.73685 36.6911 3.8396C36.9691 3.94236 37.2186 4.09269 37.4237 4.28105L56.2975 21.6042C56.6684 21.9438 56.8745 22.3881 56.875 22.8495V60.7895C56.875 61.278 56.6445 61.7466 56.2343 62.092C55.8241 62.4375 55.2677 62.6316 54.6875 62.6316H6.5625C5.98234 62.6316 5.42594 62.4375 5.0157 62.092C4.60547 61.7466 4.375 61.278 4.375 60.7895V5.52632Z" fill="black"/>
<path id="Vector_4" d="M35 22.1053H59.0625C59.6427 22.1053 60.1991 22.2993 60.6093 22.6448C61.0195 22.9903 61.25 23.4588 61.25 23.9474C61.25 24.4359 61.0195 24.9045 60.6093 25.2499C60.1991 25.5954 59.6427 25.7895 59.0625 25.7895H32.8125C32.2323 25.7895 31.6759 25.5954 31.2657 25.2499C30.8555 24.9045 30.625 24.4359 30.625 23.9474V1.84211C30.625 1.35355 30.8555 0.885002 31.2657 0.53954C31.6759 0.194078 32.2323 0 32.8125 0C33.3927 0 33.9491 0.194078 34.3593 0.53954C34.7695 0.885002 35 1.35355 35 1.84211V22.1053Z" fill="black"/>
</g>
</svg>
