<svg width="30" height="30" viewBox="0 0 30 30" fill="none" xmlns="http://www.w3.org/2000/svg">
<g id="material-symbols:language-korean-latin-rounded">
<path id="Vector" d="M6.75 15.7187C7.29167 15.7187 7.75542 15.5992 8.14125 15.36C8.52708 15.1208 8.71958 14.7613 8.71875 14.2812C8.71875 13.8021 8.52625 13.4375 8.14125 13.1875C7.75625 12.9375 7.2925 12.8125 6.75 12.8125C6.20833 12.8125 5.745 12.9375 5.36 13.1875C4.975 13.4375 4.78208 13.8021 4.78125 14.2812C4.78125 14.7604 4.97417 15.12 5.36 15.36C5.74583 15.6 6.20917 15.7196 6.75 15.7187ZM3.03125 11C2.84375 11 2.6825 10.9325 2.5475 10.7975C2.4125 10.6625 2.34458 10.5008 2.34375 10.3125C2.34375 10.125 2.41167 9.96375 2.5475 9.82875C2.68333 9.69375 2.84458 9.62583 3.03125 9.625H5.90625V8.6875C5.90625 8.45833 5.98458 8.26583 6.14125 8.11C6.29792 7.95417 6.49042 7.87583 6.71875 7.875C6.94792 7.875 7.14083 7.95333 7.2975 8.11C7.45417 8.26667 7.53208 8.45917 7.53125 8.6875V9.625H10.4375C10.625 9.625 10.7867 9.69292 10.9225 9.82875C11.0583 9.96458 11.1258 10.1258 11.125 10.3125C11.125 10.5 11.0575 10.6617 10.9225 10.7975C10.7875 10.9333 10.6258 11.0008 10.4375 11H3.03125ZM6.75 17.0938C5.77083 17.0938 4.93208 16.8492 4.23375 16.36C3.53542 15.8708 3.18667 15.1779 3.1875 14.2812C3.1875 13.3646 3.53667 12.6667 4.235 12.1875C4.93333 11.7083 5.77167 11.4687 6.75 11.4688C7.75 11.4688 8.59917 11.7083 9.2975 12.1875C9.99583 12.6667 10.3446 13.3646 10.3437 14.2812C10.3437 15.1979 9.995 15.8958 9.2975 16.375C8.6 16.8542 7.75083 17.0938 6.75 17.0938ZM5.71875 22.125C5.36458 22.125 5.06792 22.0054 4.82875 21.7662C4.58958 21.5271 4.46958 21.23 4.46875 20.875V18.5625C4.46875 18.3333 4.55208 18.1408 4.71875 17.985C4.88542 17.8292 5.08333 17.7508 5.3125 17.75C5.54167 17.75 5.73458 17.8283 5.89125 17.985C6.04792 18.1417 6.12583 18.3342 6.125 18.5625V20.75H13.6875C13.875 20.75 14.0367 20.8179 14.1725 20.9538C14.3083 21.0896 14.3758 21.2508 14.375 21.4375C14.375 21.625 14.3075 21.7867 14.1725 21.9225C14.0375 22.0583 13.8758 22.1258 13.6875 22.125H5.71875ZM12.9375 18.8437C12.7083 18.8437 12.5158 18.7658 12.36 18.61C12.2042 18.4542 12.1258 18.2613 12.125 18.0312V8.65625C12.125 8.42708 12.2033 8.23958 12.36 8.09375C12.5167 7.94792 12.7092 7.875 12.9375 7.875C13.1667 7.875 13.3542 7.94792 13.5 8.09375C13.6458 8.23958 13.7188 8.42708 13.7188 8.65625V12.5625H15.1875C15.375 12.5625 15.5367 12.6304 15.6725 12.7663C15.8083 12.9021 15.8758 13.0633 15.875 13.25C15.875 13.4375 15.8075 13.5992 15.6725 13.735C15.5375 13.8708 15.3758 13.9383 15.1875 13.9375H13.75V18.0312C13.75 18.2604 13.6721 18.4533 13.5162 18.61C13.3604 18.7667 13.1675 18.8446 12.9375 18.8437ZM21.9375 19.5625C22.5208 19.5625 23.0888 19.4271 23.6413 19.1562C24.1938 18.8854 24.6988 18.5 25.1562 18V14.6875C24.6771 14.75 24.2346 14.8229 23.8287 14.9062C23.4229 14.9896 23.0425 15.0833 22.6875 15.1875C21.75 15.4792 21.0471 15.8437 20.5787 16.2812C20.1104 16.7187 19.8758 17.2292 19.875 17.8125C19.875 18.3542 20.0625 18.7812 20.4375 19.0937C20.8125 19.4062 21.3125 19.5625 21.9375 19.5625ZM21.2188 21.6875C20.0313 21.6875 19.0938 21.3492 18.4063 20.6725C17.7188 19.9958 17.375 19.0737 17.375 17.9062C17.375 16.8229 17.7188 15.9375 18.4063 15.25C19.0938 14.5625 20.1979 14.0104 21.7188 13.5937C22.1979 13.4687 22.7242 13.3542 23.2975 13.25C23.8708 13.1458 24.4904 13.0521 25.1562 12.9687C25.1146 11.9896 24.8854 11.2758 24.4688 10.8275C24.0521 10.3792 23.4062 10.1554 22.5312 10.1562C22.0937 10.1562 21.6667 10.2187 21.25 10.3437C20.8333 10.4687 20.3437 10.6771 19.7812 10.9687C19.5312 11.1146 19.2708 11.1562 19 11.0937C18.7292 11.0312 18.5208 10.875 18.375 10.625C18.2292 10.375 18.1979 10.1092 18.2812 9.8275C18.3646 9.54583 18.5312 9.3325 18.7812 9.1875C19.4271 8.83333 20.12 8.54708 20.86 8.32875C21.6 8.11042 22.355 8.00083 23.125 8C24.6042 8 25.7292 8.45833 26.5 9.375C27.2708 10.2917 27.6562 11.625 27.6562 13.375V20.375C27.6562 20.6667 27.5571 20.9117 27.3587 21.11C27.1604 21.3083 26.9158 21.4071 26.625 21.4062H26.4687C26.1979 21.4062 25.9688 21.3175 25.7812 21.14C25.5937 20.9625 25.4792 20.7492 25.4375 20.5L25.375 20C24.7917 20.5208 24.1513 20.9325 23.4538 21.235C22.7563 21.5375 22.0113 21.6883 21.2188 21.6875Z" fill="black"/>
</g>
</svg>
