<svg width="46" height="46" viewBox="0 0 46 46" fill="none" xmlns="http://www.w3.org/2000/svg">
<g id="mingcute:left-fill" clip-path="url(#clip0_33_65)">
<g id="Group">
<path id="Vector" fill-rule="evenodd" clip-rule="evenodd" d="M15.2042 25.0069C14.6664 24.4683 14.3643 23.7383 14.3643 22.9772C14.3643 22.2161 14.6664 21.4861 15.2042 20.9475L26.0342 10.1138C26.573 9.57522 27.3037 9.27277 28.0655 9.27295C28.4427 9.27304 28.8162 9.34742 29.1646 9.49186C29.5131 9.63629 29.8297 9.84794 30.0964 10.1147C30.363 10.3815 30.5745 10.6982 30.7188 11.0468C30.8631 11.3953 30.9373 11.7688 30.9372 12.146C30.9371 12.5232 30.8627 12.8967 30.7183 13.2452C30.5738 13.5937 30.3622 13.9103 30.0954 14.1769L21.297 22.9772L30.0973 31.7775C30.3718 32.0423 30.5907 32.3591 30.7414 32.7095C30.8921 33.0598 30.9715 33.4367 30.975 33.818C30.9785 34.1994 30.906 34.5776 30.7617 34.9307C30.6175 35.2837 30.4044 35.6045 30.1348 35.8743C29.8653 36.1441 29.5447 36.3575 29.1918 36.5021C28.8389 36.6467 28.4607 36.7195 28.0794 36.7164C27.698 36.7132 27.3211 36.6342 26.9706 36.4838C26.6201 36.3335 26.3031 36.1148 26.038 35.8406L15.2004 25.0069H15.2042Z" fill="black"/>
</g>
</g>
<defs>
<clipPath id="clip0_33_65">
<rect width="45.9545" height="45.9545" fill="white"/>
</clipPath>
</defs>
</svg>
