<svg width="46" height="46" viewBox="0 0 46 46" fill="none" xmlns="http://www.w3.org/2000/svg">
<g id="mingcute:left-fill" clip-path="url(#clip0_33_69)">
<g id="Group">
<path id="Vector" fill-rule="evenodd" clip-rule="evenodd" d="M30.7508 20.9476C31.2887 21.4861 31.5908 22.2161 31.5908 22.9773C31.5908 23.7384 31.2887 24.4684 30.7508 25.0069L19.9209 35.8407C19.3821 36.3792 18.6514 36.6817 17.8896 36.6815C17.5124 36.6814 17.1389 36.607 16.7905 36.4626C16.442 36.3182 16.1254 36.1065 15.8587 35.8397C15.5921 35.5729 15.3806 35.2562 15.2363 34.9077C15.092 34.5592 15.0178 34.1857 15.0179 33.8084C15.018 33.4312 15.0924 33.0577 15.2368 32.7093C15.3812 32.3608 15.5929 32.0442 15.8597 31.7775L24.6581 22.9773L15.8578 14.177C15.5833 13.9122 15.3644 13.5953 15.2137 13.245C15.063 12.8947 14.9836 12.5178 14.9801 12.1365C14.9766 11.7551 15.0491 11.3769 15.1933 11.0238C15.3376 10.6708 15.5507 10.35 15.8203 10.0802C16.0898 9.81039 16.4104 9.59697 16.7633 9.45239C17.1162 9.30781 17.4944 9.23496 17.8757 9.23809C18.2571 9.24122 18.634 9.32027 18.9845 9.47063C19.335 9.62099 19.652 9.83965 19.9171 10.1138L30.7547 20.9476H30.7508Z" fill="black"/>
</g>
</g>
<defs>
<clipPath id="clip0_33_69">
<rect width="45.9545" height="45.9545" fill="white" transform="matrix(-1 0 0 -1 45.9541 45.9545)"/>
</clipPath>
</defs>
</svg>
