<svg width="30" height="30" viewBox="0 0 30 30" fill="none" xmlns="http://www.w3.org/2000/svg">
<g id="mingcute:move-line" clip-path="url(#clip0_33_86)">
<g id="Group">
<path id="Vector" d="M10.5796 8.3837C10.3452 8.14929 10.2136 7.83141 10.2136 7.49995C10.2136 7.1685 10.3452 6.85061 10.5796 6.6162L14.0271 3.1687C14.1547 3.04095 14.3064 2.93962 14.4732 2.87047C14.6401 2.80133 14.8189 2.76575 14.9996 2.76575C15.1802 2.76575 15.359 2.80133 15.5259 2.87047C15.6928 2.93962 15.8444 3.04095 15.9721 3.1687L19.4183 6.6162C19.5377 6.73151 19.6329 6.86944 19.6984 7.02195C19.7639 7.17445 19.7984 7.33848 19.7999 7.50445C19.8013 7.67043 19.7697 7.83503 19.7068 7.98865C19.644 8.14227 19.5512 8.28183 19.4338 8.3992C19.3164 8.51656 19.1769 8.60938 19.0233 8.67223C18.8696 8.73508 18.705 8.76671 18.5391 8.76527C18.3731 8.76382 18.2091 8.72934 18.0566 8.66383C17.904 8.59832 17.7661 8.50309 17.6508 8.3837L16.2496 6.98245V13.75H23.0171L21.6158 12.3487C21.3813 12.1143 21.2494 11.7964 21.2493 11.4648C21.2492 11.1332 21.3808 10.8151 21.6152 10.5806C21.8496 10.346 22.1675 10.2142 22.4991 10.2141C22.8307 10.214 23.1488 10.3456 23.3833 10.58L26.8308 14.0275C26.9586 14.1551 27.0599 14.3067 27.129 14.4736C27.1982 14.6405 27.2338 14.8193 27.2338 15C27.2338 15.1806 27.1982 15.3594 27.129 15.5263C27.0599 15.6932 26.9586 15.8448 26.8308 15.9725L23.3833 19.42C23.1488 19.6543 22.8307 19.7859 22.4991 19.7858C22.1675 19.7857 21.8496 19.6539 21.6152 19.4193C21.3808 19.1848 21.2492 18.8667 21.2493 18.5351C21.2494 18.2035 21.3813 17.8856 21.6158 17.6512L23.0171 16.25H16.2496V23.0175L17.6508 21.6162C17.8866 21.3885 18.2023 21.2625 18.5301 21.2654C18.8578 21.2682 19.1713 21.3997 19.4031 21.6314C19.6348 21.8632 19.7663 22.1767 19.7692 22.5045C19.772 22.8322 19.646 23.148 19.4183 23.3837L15.9721 26.8312C15.8444 26.959 15.6928 27.0603 15.5259 27.1294C15.359 27.1986 15.1802 27.2342 14.9996 27.2342C14.8189 27.2342 14.6401 27.1986 14.4732 27.1294C14.3064 27.0603 14.1547 26.959 14.0271 26.8312L10.5796 23.3837C10.4635 23.2676 10.3715 23.1297 10.3087 22.978C10.2459 22.8263 10.2136 22.6637 10.2137 22.4995C10.2137 22.3353 10.2461 22.1728 10.309 22.0211C10.3719 21.8694 10.464 21.7316 10.5802 21.6156C10.6963 21.4995 10.8342 21.4075 10.9859 21.3447C11.1376 21.2819 11.3002 21.2496 11.4644 21.2497C11.6286 21.2498 11.7911 21.2822 11.9428 21.345C12.0945 21.4079 12.2323 21.5001 12.3483 21.6162L13.7483 23.0175V16.25H6.98331L8.38456 17.6512C8.5007 17.7673 8.59284 17.9051 8.65572 18.0567C8.71861 18.2084 8.751 18.371 8.75106 18.5351C8.75112 18.6993 8.71884 18.8619 8.65606 19.0136C8.59328 19.1653 8.50124 19.3032 8.38518 19.4193C8.26913 19.5355 8.13133 19.6276 7.97967 19.6905C7.828 19.7534 7.66544 19.7858 7.50125 19.7858C7.33706 19.7859 7.17447 19.7536 7.02276 19.6908C6.87105 19.6281 6.7332 19.536 6.61706 19.42L3.16956 15.9725C3.04181 15.8448 2.94047 15.6932 2.87133 15.5263C2.80219 15.3594 2.7666 15.1806 2.7666 15C2.7666 14.8193 2.80219 14.6405 2.87133 14.4736C2.94047 14.3067 3.04181 14.1551 3.16956 14.0275L6.61706 10.58C6.85177 10.3457 7.16992 10.2143 7.50151 10.2147C7.8331 10.2151 8.15096 10.3471 8.38518 10.5818C8.6194 10.8165 8.75079 11.1347 8.75044 11.4663C8.75008 11.7979 8.61802 12.1157 8.38331 12.35L6.98206 13.75H13.7496V6.9837L12.3483 8.3837C12.2322 8.49992 12.0944 8.59212 11.9426 8.65503C11.7909 8.71793 11.6282 8.75031 11.4639 8.75031C11.2997 8.75031 11.137 8.71793 10.9853 8.65503C10.8335 8.59212 10.6956 8.49992 10.5796 8.3837Z" fill="black"/>
</g>
</g>
<defs>
<clipPath id="clip0_33_86">
<rect width="30" height="30" fill="white"/>
</clipPath>
</defs>
</svg>
