<svg width="30" height="30" viewBox="0 0 30 30" fill="none" xmlns="http://www.w3.org/2000/svg">
<g id="tabler:line">
<path id="Vector" d="M9.375 20.625L20.625 9.375M5 22.5C5 23.163 5.26339 23.7989 5.73223 24.2678C6.20107 24.7366 6.83696 25 7.5 25C8.16304 25 8.79893 24.7366 9.26777 24.2678C9.73661 23.7989 10 23.163 10 22.5C10 21.837 9.73661 21.2011 9.26777 20.7322C8.79893 20.2634 8.16304 20 7.5 20C6.83696 20 6.20107 20.2634 5.73223 20.7322C5.26339 21.2011 5 21.837 5 22.5ZM20 7.5C20 8.16304 20.2634 8.79893 20.7322 9.26777C21.2011 9.73661 21.837 10 22.5 10C23.163 10 23.7989 9.73661 24.2678 9.26777C24.7366 8.79893 25 8.16304 25 7.5C25 6.83696 24.7366 6.20107 24.2678 5.73223C23.7989 5.26339 23.163 5 22.5 5C21.837 5 21.2011 5.26339 20.7322 5.73223C20.2634 6.20107 20 6.83696 20 7.5Z" stroke="black" stroke-width="2" stroke-linecap="round" stroke-linejoin="round"/>
</g>
</svg>
