<svg width="1123" height="866" viewBox="0 0 1123 866" fill="none" xmlns="http://www.w3.org/2000/svg">
<path d="M10 899.006C10 860.025 17.8967 827.78 34.8775 792.544C67.6087 724.627 166.227 711.337 230.971 696.693C291.357 683.034 354.79 681.211 416.455 679.132C456.482 677.783 497.734 681.671 537.55 676.937C610.831 668.225 678.5 655.531 748.277 630.841C813.85 607.638 857.073 555.42 901.201 503.892C944.018 453.894 970.384 390.702 967.968 324.262C964.409 226.389 907.487 143.287 801.508 151.765C775.202 153.87 753.776 161.392 742.972 187.801C733.761 210.317 746.046 227.946 768.764 231.337C829.177 240.354 870.742 216.6 921.322 185.24C969.869 155.141 994.088 100.03 1036.93 63.7794C1073.46 32.8659 1120.85 10 1169 10" stroke="white" stroke-opacity="0.8" stroke-width="18.6151" stroke-linecap="round"/>
</svg>
