<svg width="50" height="50" viewBox="0 0 50 50" fill="none" xmlns="http://www.w3.org/2000/svg">
<path d="M22.5 45V42.35C17.6657 41.7409 13.22 39.388 9.99773 35.733C6.77548 32.0781 4.99833 27.3725 5 22.5H10C10 26.4782 11.5804 30.2936 14.3934 33.1066C17.2064 35.9196 21.0218 37.5 25 37.5C28.9782 37.5 32.7936 35.9196 35.6066 33.1066C38.4196 30.2936 40 26.4782 40 22.5H45C45.0017 27.3725 43.2245 32.0781 40.0023 35.733C36.78 39.388 32.3343 41.7409 27.5 42.35V45H35V50H15V45H22.5ZM15 10C15 7.34784 16.0536 4.8043 17.9289 2.92893C19.8043 1.05357 22.3478 0 25 0C27.6522 0 30.1957 1.05357 32.0711 2.92893C33.9464 4.8043 35 7.34784 35 10V22.5C35 25.1522 33.9464 27.6957 32.0711 29.5711C30.1957 31.4464 27.6522 32.5 25 32.5C22.3478 32.5 19.8043 31.4464 17.9289 29.5711C16.0536 27.6957 15 25.1522 15 22.5V10Z" fill="black"/>
</svg>
